<svg width="220" height="60" viewBox="0 0 220 60" fill="none" xmlns="http://www.w3.org/2000/svg">
<rect x="1" y="1" width="218" height="58" rx="29" fill="white" stroke="#DDEFFD" stroke-width="2"/>
<path d="M64.968 38V21.344H66.552L73.608 32.936H72.528L79.584 21.344H81.168V38H78.912V25.304L79.44 25.448L73.872 34.592H72.288L66.72 25.448L67.224 25.304V38H64.968ZM89.5648 38.24C88.5248 38.24 87.5808 37.984 86.7328 37.472C85.8848 36.944 85.2128 36.232 84.7168 35.336C84.2368 34.44 83.9968 33.432 83.9968 32.312C83.9968 31.192 84.2368 30.184 84.7168 29.288C85.2128 28.392 85.8768 27.68 86.7088 27.152C87.5568 26.624 88.5088 26.36 89.5648 26.36C90.4288 26.36 91.1968 26.544 91.8688 26.912C92.5568 27.264 93.1088 27.76 93.5248 28.4C93.9408 29.024 94.1728 29.752 94.2208 30.584V34.016C94.1728 34.832 93.9408 35.56 93.5248 36.2C93.1248 36.84 92.5808 37.344 91.8928 37.712C91.2208 38.064 90.4448 38.24 89.5648 38.24ZM89.9248 36.2C90.9968 36.2 91.8608 35.84 92.5168 35.12C93.1728 34.384 93.5008 33.448 93.5008 32.312C93.5008 31.528 93.3488 30.848 93.0448 30.272C92.7568 29.68 92.3408 29.224 91.7968 28.904C91.2528 28.568 90.6208 28.4 89.9008 28.4C89.1808 28.4 88.5408 28.568 87.9808 28.904C87.4368 29.24 87.0048 29.704 86.6848 30.296C86.3808 30.872 86.2288 31.536 86.2288 32.288C86.2288 33.056 86.3808 33.736 86.6848 34.328C87.0048 34.904 87.4448 35.36 88.0048 35.696C88.5648 36.032 89.2048 36.2 89.9248 36.2ZM93.3568 38V34.928L93.7648 32.144L93.3568 29.384V26.6H95.5408V38H93.3568ZM103.27 38.24C102.342 38.24 101.502 38.032 100.75 37.616C100.014 37.184 99.4376 36.592 99.0216 35.84C98.6056 35.088 98.3976 34.216 98.3976 33.224V26.6H100.558V33.128C100.558 33.752 100.662 34.296 100.87 34.76C101.094 35.208 101.414 35.552 101.83 35.792C102.246 36.032 102.734 36.152 103.294 36.152C104.142 36.152 104.806 35.888 105.286 35.36C105.766 34.816 106.006 34.072 106.006 33.128V26.6H108.166V33.224C108.166 34.216 107.958 35.088 107.542 35.84C107.126 36.592 106.55 37.184 105.814 37.616C105.094 38.032 104.246 38.24 103.27 38.24ZM111.085 38V26.6H113.245V38H111.085ZM112.165 24.32C111.765 24.32 111.437 24.192 111.181 23.936C110.925 23.664 110.797 23.328 110.797 22.928C110.797 22.544 110.925 22.224 111.181 21.968C111.437 21.696 111.765 21.56 112.165 21.56C112.565 21.56 112.893 21.696 113.149 21.968C113.405 22.224 113.533 22.544 113.533 22.928C113.533 23.328 113.405 23.664 113.149 23.936C112.893 24.192 112.565 24.32 112.165 24.32ZM116.548 40.64L118.036 37.784L118.804 37.592C118.724 37.768 118.62 37.912 118.492 38.024C118.38 38.136 118.236 38.192 118.06 38.192C117.724 38.192 117.412 38.056 117.124 37.784C116.852 37.496 116.716 37.144 116.716 36.728C116.716 36.264 116.868 35.88 117.172 35.576C117.476 35.256 117.86 35.096 118.324 35.096C118.74 35.096 119.108 35.256 119.428 35.576C119.748 35.88 119.908 36.264 119.908 36.728C119.908 36.904 119.868 37.12 119.788 37.376C119.724 37.616 119.588 37.928 119.38 38.312L117.796 41.312L116.548 40.64ZM128.413 38V21.344H130.669V38H128.413ZM139.165 38V21.344H141.421V38H139.165ZM129.949 30.416V28.352H139.717V30.416H129.949ZM149.823 38.24C148.783 38.24 147.839 37.984 146.991 37.472C146.143 36.944 145.471 36.232 144.975 35.336C144.495 34.44 144.255 33.432 144.255 32.312C144.255 31.192 144.495 30.184 144.975 29.288C145.471 28.392 146.135 27.68 146.967 27.152C147.815 26.624 148.767 26.36 149.823 26.36C150.687 26.36 151.455 26.544 152.127 26.912C152.815 27.264 153.367 27.76 153.783 28.4C154.199 29.024 154.431 29.752 154.479 30.584V34.016C154.431 34.832 154.199 35.56 153.783 36.2C153.383 36.84 152.839 37.344 152.151 37.712C151.479 38.064 150.703 38.24 149.823 38.24ZM150.183 36.2C151.255 36.2 152.119 35.84 152.775 35.12C153.431 34.384 153.759 33.448 153.759 32.312C153.759 31.528 153.607 30.848 153.303 30.272C153.015 29.68 152.599 29.224 152.055 28.904C151.511 28.568 150.879 28.4 150.159 28.4C149.439 28.4 148.799 28.568 148.239 28.904C147.695 29.24 147.263 29.704 146.943 30.296C146.639 30.872 146.487 31.536 146.487 32.288C146.487 33.056 146.639 33.736 146.943 34.328C147.263 34.904 147.703 35.36 148.263 35.696C148.823 36.032 149.463 36.2 150.183 36.2ZM153.615 38V34.928L154.023 32.144L153.615 29.384V26.6H155.799V38H153.615ZM162.161 38L157.649 26.6H159.905L163.169 35.48H162.449L165.689 26.6H166.937L170.177 35.48H169.457L172.721 26.6H174.977L170.489 38H169.217L165.929 29.384H166.721L163.409 38H162.161ZM181.416 38.24C180.376 38.24 179.432 37.984 178.584 37.472C177.736 36.944 177.064 36.232 176.568 35.336C176.088 34.44 175.848 33.432 175.848 32.312C175.848 31.192 176.088 30.184 176.568 29.288C177.064 28.392 177.728 27.68 178.56 27.152C179.408 26.624 180.36 26.36 181.416 26.36C182.28 26.36 183.048 26.544 183.72 26.912C184.408 27.264 184.96 27.76 185.376 28.4C185.792 29.024 186.024 29.752 186.072 30.584V34.016C186.024 34.832 185.792 35.56 185.376 36.2C184.976 36.84 184.432 37.344 183.744 37.712C183.072 38.064 182.296 38.24 181.416 38.24ZM181.776 36.2C182.848 36.2 183.712 35.84 184.368 35.12C185.024 34.384 185.352 33.448 185.352 32.312C185.352 31.528 185.2 30.848 184.896 30.272C184.608 29.68 184.192 29.224 183.648 28.904C183.104 28.568 182.472 28.4 181.752 28.4C181.032 28.4 180.392 28.568 179.832 28.904C179.288 29.24 178.856 29.704 178.536 30.296C178.232 30.872 178.08 31.536 178.08 32.288C178.08 33.056 178.232 33.736 178.536 34.328C178.856 34.904 179.296 35.36 179.856 35.696C180.416 36.032 181.056 36.2 181.776 36.2ZM185.208 38V34.928L185.616 32.144L185.208 29.384V26.6H187.392V38H185.208ZM190.561 38V26.6H192.721V38H190.561ZM191.641 24.32C191.241 24.32 190.913 24.192 190.657 23.936C190.401 23.664 190.273 23.328 190.273 22.928C190.273 22.544 190.401 22.224 190.657 21.968C190.913 21.696 191.241 21.56 191.641 21.56C192.041 21.56 192.369 21.696 192.625 21.968C192.881 22.224 193.009 22.544 193.009 22.928C193.009 23.328 192.881 23.664 192.625 23.936C192.369 24.192 192.041 24.32 191.641 24.32ZM195.928 38V26.6H198.088V38H195.928ZM197.008 24.32C196.608 24.32 196.28 24.192 196.024 23.936C195.768 23.664 195.64 23.328 195.64 22.928C195.64 22.544 195.768 22.224 196.024 21.968C196.28 21.696 196.608 21.56 197.008 21.56C197.408 21.56 197.736 21.696 197.992 21.968C198.248 22.224 198.376 22.544 198.376 22.928C198.376 23.328 198.248 23.664 197.992 23.936C197.736 24.192 197.408 24.32 197.008 24.32Z" fill="black"/>
<path d="M39 43.4C39 43.4 50.2696 33.3826 50.2696 25.8695C50.2696 19.6455 45.224 14.6 39 14.6C32.776 14.6 27.7305 19.6455 27.7305 25.8695C27.7305 33.3826 39 43.4 39 43.4Z" fill="#90CAF9"/>
<path d="M42.6005 25.4002C42.6005 27.3884 40.9887 29.0002 39.0005 29.0002C37.0123 29.0002 35.4005 27.3884 35.4005 25.4002C35.4005 23.412 37.0123 21.8002 39.0005 21.8002C40.9887 21.8002 42.6005 23.412 42.6005 25.4002Z" fill="#90CAF9"/>
<path d="M39 43.4C39 43.4 50.2696 33.3826 50.2696 25.8695C50.2696 19.6455 45.224 14.6 39 14.6C32.776 14.6 27.7305 19.6455 27.7305 25.8695C27.7305 33.3826 39 43.4 39 43.4Z" stroke="white" stroke-width="2"/>
<path d="M42.6005 25.4002C42.6005 27.3884 40.9887 29.0002 39.0005 29.0002C37.0123 29.0002 35.4005 27.3884 35.4005 25.4002C35.4005 23.412 37.0123 21.8002 39.0005 21.8002C40.9887 21.8002 42.6005 23.412 42.6005 25.4002Z" stroke="white" stroke-width="2"/>
</svg>
