<svg width="26" height="32" viewBox="0 0 26 32" fill="none" xmlns="http://www.w3.org/2000/svg">
<path d="M13 30.4C13 30.4 24.2695 20.3826 24.2695 12.8695C24.2695 6.64553 19.224 1.59998 13 1.59998C6.77596 1.59998 1.73041 6.64553 1.73041 12.8695C1.73041 20.3826 13 30.4 13 30.4Z" fill="#90CAF9"/>
<path d="M16.6004 12.4002C16.6004 14.3884 14.9887 16.0002 13.0004 16.0002C11.0122 16.0002 9.40043 14.3884 9.40043 12.4002C9.40043 10.412 11.0122 8.8002 13.0004 8.8002C14.9887 8.8002 16.6004 10.412 16.6004 12.4002Z" fill="#90CAF9"/>
<path d="M13 30.4C13 30.4 24.2695 20.3826 24.2695 12.8695C24.2695 6.64553 19.224 1.59998 13 1.59998C6.77596 1.59998 1.73041 6.64553 1.73041 12.8695C1.73041 20.3826 13 30.4 13 30.4Z" stroke="white" stroke-width="2"/>
<path d="M16.6004 12.4002C16.6004 14.3884 14.9887 16.0002 13.0004 16.0002C11.0122 16.0002 9.40043 14.3884 9.40043 12.4002C9.40043 10.412 11.0122 8.8002 13.0004 8.8002C14.9887 8.8002 16.6004 10.412 16.6004 12.4002Z" stroke="white" stroke-width="2"/>
</svg>
